<?xml version="1.0" encoding="utf-8"?>
<!-- Generator: Adobe Illustrator 18.0.0, SVG Export Plug-In . SVG Version: 6.00 Build 0)  -->
<!DOCTYPE svg PUBLIC "-//W3C//DTD SVG 1.1//EN" "http://www.w3.org/Graphics/SVG/1.1/DTD/svg11.dtd">
<svg version="1.1" id="Layer_1" xmlns="http://www.w3.org/2000/svg" xmlns:xlink="http://www.w3.org/1999/xlink" x="0px" y="0px"
	 viewBox="0 0 16 16" enable-background="new 0 0 16 16" xml:space="preserve">
<path fill="#3D3F41" d="M8,0.3C3.8,0.3,0.4,3.8,0.4,8s3.4,7.7,7.6,7.7s7.6-3.4,7.6-7.7S12.2,0.3,8,0.3z M8,15.1c-3.9,0-7-3.2-7-7.1
	s3.1-7.1,7-7.1s7,3.2,7,7.1S11.9,15.1,8,15.1z"/>
<g>
	<path fill="#4E758F" d="M7.1,3.9c0.6,0.7,1.2,1.2,1.6,1.7C9.2,6,9.5,6.4,9.8,6.7c0.3,0.3,0.5,0.5,0.7,0.7c0.2,0.2,0.3,0.3,0.4,0.4
		C10.9,7.8,11,7.9,11,7.9C11,8,11,8,11,8.1c0,0.1,0,0.2-0.1,0.3c-0.1,0.1-0.2,0.2-0.4,0.5C10.3,9.1,9.9,9.5,9.4,10
		c-0.5,0.5-1.2,1.2-2.2,2.1c-0.1,0.1-0.2,0.1-0.3,0.1c-0.1,0-0.2,0-0.3-0.1l-0.9-0.9c-0.1-0.1-0.1-0.2-0.1-0.3s0-0.2,0.1-0.3
		l2.5-2.5L5.5,5.4C5.5,5.4,5.4,5.2,5.4,5.1c0-0.1,0-0.2,0.1-0.3l0.9-0.9c0.1-0.1,0.2-0.1,0.3-0.1C6.9,3.8,7,3.8,7.1,3.9z"/>
</g>
</svg>
